<?xml version="1.0" standalone="no"?><!DOCTYPE svg PUBLIC "-//W3C//DTD SVG 1.1//EN" "http://www.w3.org/Graphics/SVG/1.1/DTD/svg11.dtd"><svg t="1591604957910" class="icon" viewBox="0 0 1024 1024" version="1.1" xmlns="http://www.w3.org/2000/svg" p-id="1423" xmlns:xlink="http://www.w3.org/1999/xlink" width="200" height="200"><defs><style type="text/css"></style></defs><path d="M512.307 788.787c-127.693 0-251.29-33.28-347.853-93.798C70.246 635.904 16.282 559.41 16.282 484.966c0-74.444 54.067-150.937 148.275-210.022 96.563-60.518 220.16-93.798 347.853-93.798s251.29 33.28 347.852 93.798c94.208 58.982 148.276 135.578 148.276 210.022 0 74.445-54.068 150.938-148.276 210.023-96.665 60.518-220.16 93.798-347.955 93.798z m0-574.259c-121.549 0-238.797 31.54-330.137 88.78C99.226 355.329 49.664 423.22 49.664 484.967c0 61.748 49.562 129.639 132.608 181.658 91.34 57.242 208.589 88.78 330.138 88.78s238.796-31.538 330.137-88.78c83.047-52.02 132.608-119.91 132.608-181.658 0-61.747-49.561-129.638-132.608-181.657-91.443-57.242-208.691-88.781-330.24-88.781z" fill="#8a8a8a" p-id="1424"></path><path d="M512.307 650.035c-90.931 0-164.966-74.035-164.966-164.966s74.035-164.967 164.966-164.967c90.931 0 164.967 74.036 164.967 164.967S603.34 650.035 512.307 650.035z m0-295.526c-71.987 0-130.56 58.573-130.56 130.56s58.573 130.56 130.56 130.56 130.56-58.573 130.56-130.56c0-72.09-58.573-130.56-130.56-130.56z" fill="#8a8a8a" p-id="1425"></path><path d="M427.622 506.266c-9.318 0-16.998-7.476-17.203-16.794-0.717-29.696 11.776-57.856 34.304-77.312 7.168-6.246 18.125-5.427 24.269 1.74 6.246 7.169 5.427 18.126-1.74 24.27a64.109 64.109 0 0 0-22.324 50.38c0.205 9.524-7.27 17.408-16.794 17.613-0.307 0.103-0.41 0.103-0.512 0.103z" fill="#8a8a8a" p-id="1426"></path></svg>