<?xml version="1.0" standalone="no"?><!DOCTYPE svg PUBLIC "-//W3C//DTD SVG 1.1//EN" "http://www.w3.org/Graphics/SVG/1.1/DTD/svg11.dtd"><svg t="1591605353650" class="icon" viewBox="0 0 1024 1024" version="1.1" xmlns="http://www.w3.org/2000/svg" p-id="2200" width="32" height="32" xmlns:xlink="http://www.w3.org/1999/xlink"><defs><style type="text/css"></style></defs><path d="M859.595034 504.549517c-67.089655-133.932138-200.315586-217.088-347.595034-217.088-147.350069 0-280.505379 83.155862-347.595034 217.088a16.737103 16.737103 0 0 0 0 14.900966c67.054345 133.896828 200.244966 217.088 347.595034 217.088 147.279448 0 280.470069-83.155862 347.595034-217.088a16.737103 16.737103 0 0 0 0-14.900966zM512 703.311448c-131.884138 0-251.480276-73.092414-314.014897-191.311448 62.534621-118.254345 182.095448-191.311448 314.014897-191.311448s251.444966 73.057103 314.014897 191.311448c-62.569931 118.219034-182.130759 191.311448-314.014897 191.311448z m0-362.955034A171.784828 171.784828 0 0 0 340.391724 512a171.749517 171.749517 0 0 0 171.608276 171.643586 171.820138 171.820138 0 0 0 171.643586-171.643586A171.820138 171.820138 0 0 0 512 340.356414z m0 310.060138c-76.305655 0-138.381241-62.110897-138.381241-138.416552s62.075586-138.416552 138.381241-138.416552c76.270345 0 138.381241 62.110897 138.381241 138.416552s-62.110897 138.416552-138.381241 138.416552z m16.666483-230.36469c0 9.18069-7.450483 16.666483-16.666483 16.666483a75.387586 75.387586 0 0 0-75.352276 75.316965 16.631172 16.631172 0 0 1-33.262345 0 108.755862 108.755862 0 0 1 108.579311-108.61462 16.595862 16.595862 0 0 1 16.701793 16.631172z" fill="#666666" p-id="2201"></path></svg>