<?xml version="1.0" standalone="no"?><!DOCTYPE svg PUBLIC "-//W3C//DTD SVG 1.1//EN" "http://www.w3.org/Graphics/SVG/1.1/DTD/svg11.dtd"><svg t="1591755464127" class="icon" viewBox="0 0 1139 1024" version="1.1" xmlns="http://www.w3.org/2000/svg" p-id="1162" width="17.796875" height="16" xmlns:xlink="http://www.w3.org/1999/xlink"><defs><style type="text/css"></style></defs><path d="M889.018182 193.163636c-41.890909-46.545455-97.745455-69.818182-162.909091-69.818181-48.872727 0-97.745455 16.290909-144.290909 46.545454-11.636364 6.981818-13.963636 20.945455-6.981818 32.581818 6.981818 11.636364 20.945455 13.963636 32.581818 6.981818 37.236364-25.6 76.8-39.563636 118.690909-39.563636 51.2 0 95.418182 18.618182 128 55.854546 39.563636 44.218182 58.181818 109.381818 51.2 179.2-9.309091 104.727273-74.472727 302.545455-393.309091 446.836363C193.163636 707.490909 128 509.672727 118.690909 404.945455c-6.981818-69.818182 11.636364-134.981818 51.2-179.2 32.581818-34.909091 76.8-55.854545 128-55.854546 116.363636 0 195.490909 114.036364 195.490909 116.363636 6.981818 11.636364 20.945455 13.963636 32.581818 6.981819 11.636364-6.981818 13.963636-20.945455 6.981819-32.581819-4.654545-4.654545-93.090909-137.309091-235.054546-137.30909-65.163636 0-121.018182 23.272727-162.909091 69.818181-48.872727 53.527273-72.145455 132.654545-62.836363 214.109091 11.636364 116.363636 81.454545 335.127273 430.545454 488.727273 2.327273 2.327273 6.981818 2.327273 9.309091 2.327273 4.654545 0 6.981818 0 9.309091-2.327273 349.090909-153.6 418.909091-372.363636 430.545454-488.727273 9.309091-81.454545-13.963636-160.581818-62.836363-214.109091z" fill="#bfbfbf" p-id="1163"></path></svg>