<?xml version="1.0" standalone="no"?><!DOCTYPE svg PUBLIC "-//W3C//DTD SVG 1.1//EN" "http://www.w3.org/Graphics/SVG/1.1/DTD/svg11.dtd"><svg t="1583239504117" class="icon" viewBox="0 0 2035 1024" version="1.1" xmlns="http://www.w3.org/2000/svg" p-id="6390" xmlns:xlink="http://www.w3.org/1999/xlink" width="397.4609375" height="200"><defs><style type="text/css"></style></defs><path d="M2602.89999991 217.3c2.9-0.1 5.7-0.1 8.6-0.1" fill="#8a8a8a" p-id="6391"></path><path d="M1538.99999991 895.6H638.99999991V126.5h900v769.1z m-830-64.2h760V190.8H708.99999991v640.6z" fill="#8a8a8a" p-id="6392"></path><path d="M684.79999991 331.3h799.5v70H684.79999991z" fill="#8a8a8a" p-id="6393"></path><path d="M731.94199991 348.94l127.001-222.286 86.83 49.61L818.77199991 398.55zM980.93599991 348.993L1107.93799991 126.71l86.83 49.61-127.002 222.284zM1235.41999991 348.852l127.02-220.636 86.66 49.89-127.02 220.636zM767.99999991 668.9h511.3v70H767.99999991zM767.92399991 540.981l255.6-0.56 0.153 70-255.6 0.56z" fill="#8a8a8a" p-id="6394"></path></svg>