<?xml version="1.0" standalone="no"?><!DOCTYPE svg PUBLIC "-//W3C//DTD SVG 1.1//EN" "http://www.w3.org/Graphics/SVG/1.1/DTD/svg11.dtd"><svg t="1591605594560" class="icon" viewBox="0 0 1024 1024" version="1.1" xmlns="http://www.w3.org/2000/svg" p-id="2426" width="16" height="16" xmlns:xlink="http://www.w3.org/1999/xlink"><defs><style type="text/css"></style></defs><path d="M947.418 499.21c-1.98-2.382-49.426-59.014-126.468-116.3C718.018 306.374 611.186 265.918 512 265.918c-99.184 0-206.016 40.456-308.948 116.992-77.042 57.286-124.49 113.918-126.47 116.3-6.166 7.412-6.166 18.168 0 25.58 1.98 2.382 49.428 59.014 126.47 116.3 102.932 76.536 209.764 116.992 308.948 116.992 99.186 0 206.018-40.456 308.95-116.992 77.042-57.286 124.488-113.918 126.468-116.3C953.584 517.378 953.584 506.622 947.418 499.21zM512 662c-82.844 0-150.004-67.158-150.004-150s67.16-150 150.004-150 150 67.158 150 150S594.844 662 512 662z" p-id="2427"></path><path d="M539.988 447.836c-4.32 11.262-15.208 19.272-27.988 19.272s-23.668-8.008-27.988-19.27C459.288 458.638 442 483.294 442 512c0 38.66 31.342 70 70 70 38.66 0 70-31.34 70-70C582 483.294 564.714 458.638 539.988 447.836z" p-id="2428"></path></svg>